# xmcd
#
# Track frame offsets: 
#        183
#        13195
#        29890
#        35718
#        46220
#        59053
#        66885
#        86265
#        96090
#        110648
#        123520
#        135845
#
# Disc length: 1961 seconds
#
# Revision: 2
# Processed by: cddbd v1.5.2PL0 Copyright (c) Steve Scherf et al.
# Submitted via: ExactAudioCopyFreeDBPlugin 1.0
#
DISCID=a907a70c
DTITLE=Various Artist - Country Classics Volume 2
DYEAR=1990
DGENRE=Country
TTITLE0=Lynn Anderson - I Never Promised You A Rose Garden
TTITLE1=Tanya Tucker - The Night They Drove Old Dixie Down
TTITLE2=Tammy Wynette - Welcome To My World
TTITLE3=Stella Parton - Standard Lie
TTITLE4=Tammy Wynette - Stand By Your Man
TTITLE5=Johnny Tillotson - Send Me The Pillow That You Dream On
TTITLE6=Nitty Gritty Dirt Band - Mr Bojangles
TTITLE7=Faron Young - Hello Walls
TTITLE8=Hoyt Axton - Evangeline
TTITLE9=George Jones - The Race Is On
TTITLE10=Lynn Anderson - I've Never Loved Anyone More
TTITLE11=Porter Wagoner - I Thought I Heard You Calling My Name
EXTD=
EXTT0=
EXTT1=
EXTT2=
EXTT3=
EXTT4=
EXTT5=
EXTT6=
EXTT7=
EXTT8=
EXTT9=
EXTT10=
EXTT11=
PLAYORDER=
